<?xml version="1.0" encoding="utf-8"?>
<!-- Generator: Adobe Illustrator 16.0.0, SVG Export Plug-In . SVG Version: 6.00 Build 0)  -->
<!DOCTYPE svg PUBLIC "-//W3C//DTD SVG 1.1//EN" "http://www.w3.org/Graphics/SVG/1.1/DTD/svg11.dtd">
<svg version="1.1" id="레이어_1" xmlns="http://www.w3.org/2000/svg" xmlns:xlink="http://www.w3.org/1999/xlink" x="0px"
	 y="0px" width="368.292px" height="248.78px" viewBox="0 0 368.292 248.78" enable-background="new 0 0 368.292 248.78"
	 xml:space="preserve">
<path fill="#652D8D" d="M266.475,76.954c-7.646,0-13.867,6.218-13.867,13.866v32.03c0,13.235-8.558,23.09-19.91,23.09
	c-11.354,0-19.916-9.855-19.916-23.09v-32.03c0-7.775-5.93-13.866-13.496-13.866c-7.646,0-13.865,6.218-13.865,13.866v32.635
	c0,28.419,20.324,49.246,47.277,49.246c13.073,0,25.146-5.131,33.998-14.447c8.796-9.264,13.644-21.84,13.644-35.403v-32.03
	C280.339,83.172,274.121,76.954,266.475,76.954"/>
<path fill="#AACE37" d="M337.766,222.778c-1.165,0-2.343-0.188-3.483-0.572l-37.403-9.475c-15.25,8.633-32.477,13.17-50.135,13.17
	h-127.12c-56.215,0-101.947-45.734-101.947-101.948c0-56.215,45.731-101.949,101.947-101.949h43.899
	c6.031,0,10.922,4.893,10.922,10.922c0,6.034-4.891,10.924-10.922,10.924h-43.899c-44.169,0-80.102,35.933-80.102,80.103
	c0,44.168,35.933,80.096,80.102,80.096h127.12c15.286,0,30.146-4.316,42.972-12.49c2.787-1.775,6.225-2.191,9.357-1.141
	l24.484,7.223l-10.346-21.359c-1.052-3.131-0.636-6.57,1.141-9.355c8.172-12.828,12.493-27.689,12.493-42.973
	c0-44.17-35.932-80.103-80.102-80.103h-43.902c-6.031,0-10.92-4.89-10.92-10.924c0-6.03,4.889-10.922,10.92-10.922h43.902
	c56.216,0,101.943,45.734,101.943,101.949c0,17.663-4.534,34.883-13.162,50.135l12.592,34.281c1.327,3.932,0.307,8.273-2.625,11.209
	C343.412,221.659,340.618,222.778,337.766,222.778"/>
<path fill="#652D8D" d="M157.53,135.54c-3.703,0-7.186,1.443-9.803,4.063c-4.17,4.17-9.726,6.465-15.637,6.465
	c-5.912,0-11.464-2.295-15.631-6.469c-4.345-4.338-6.832-10.037-6.832-15.634c0-5.597,2.487-11.297,6.832-15.642
	c4.175-4.173,9.728-6.476,15.631-6.476c5.906,0,11.458,2.302,15.637,6.476c2.615,2.62,6.096,4.063,9.803,4.063
	c3.705,0,7.186-1.444,9.807-4.063c5.403-5.404,5.403-14.199,0-19.609c-9.412-9.415-21.929-14.599-35.246-14.599
	c-13.313,0-25.827,5.185-35.239,14.599c-19.431,19.436-19.431,51.065,0,70.506c9.398,9.396,21.912,14.572,35.239,14.572
	c13.328,0,25.845-5.178,35.246-14.58c5.403-5.402,5.403-14.203,0-19.613C164.713,136.979,161.23,135.54,157.53,135.54"/>
</svg>
