<?xml version="1.0" encoding="utf-8"?>
<!-- Generator: Adobe Illustrator 16.0.0, SVG Export Plug-In . SVG Version: 6.00 Build 0)  -->
<!DOCTYPE svg PUBLIC "-//W3C//DTD SVG 1.1//EN" "http://www.w3.org/Graphics/SVG/1.1/DTD/svg11.dtd">
<svg version="1.1" id="レイヤ_1" xmlns="http://www.w3.org/2000/svg" xmlns:xlink="http://www.w3.org/1999/xlink" x="0px"
	 y="0px" width="500px" height="345.463px" viewBox="0 0 500 345.463" enable-background="new 0 0 500 345.463"
	 xml:space="preserve">
<g>
	<path fill="#FFFFFF" d="M63.682,195.421c0-0.367-0.3-0.669-0.667-0.669H39.937c-12.478,0-22.594-10.139-22.594-22.597
		c0-6.04,2.006-12.155,6.618-16.761L150.036,24.242c8.845-8.845,23.18-8.845,32.025,0l29.381,28.556l59.355-0.093
		c3.944-24.304,35.768-35.043,57.233-35.043c36.188,0,66.466,25.27,74.17,59.117c0.135,0.592,0.278,1.178,0.374,1.771
		c0.061,0.313,0.235,0.58,0.503,0.72c26.019,14.315,44.249,41.029,46.721,72.188c0.036,0.388,0.209,0.72,0.529,0.894
		c0.191,0.11,0.382,0.232,0.58,0.349c20.785,12.486,34.694,35.246,34.694,61.258c0,29.782-18.231,55.301-44.139,66.021
		c-0.239,0.099-0.412,0.336-0.412,0.615v23.358c0,12.481-10.122,22.604-22.604,22.604H86.325c-12.486,0-22.608-10.123-22.608-22.604
		L63.682,195.421z"/>
	<path fill="#003894" d="M244.674,189.718c8.024,0,14.538-6.504,14.538-14.537v-52.913c0-8.026-6.514-14.536-14.538-14.536
		c-8.035,0-14.538,6.51-14.538,14.536v52.913C230.136,183.213,236.64,189.718,244.674,189.718"/>
	<path fill="#003894" d="M359.107,189.718c8.028,0,14.54-6.504,14.54-14.537v-52.913c0-8.026-6.512-14.536-14.54-14.536
		c-8.027,0-14.537,6.51-14.537,14.536v52.913C344.57,183.213,351.08,189.718,359.107,189.718"/>
	<path fill="#003894" d="M197.98,223.228c0-0.44-0.359-0.802-0.805-0.802l-3.807-0.01c-6.714,0-12.156-5.442-12.156-12.156
		c0-6.714,5.441-12.157,12.156-12.157h34.301c6.716,0,12.16,5.443,12.16,12.157c0,6.713-5.444,12.156-12.16,12.156l-1.971,0.01
		c-0.446,0-0.806,0.362-0.806,0.802l-0.014,43.296c0,7.422-6.021,13.433-13.438,13.433c-7.421,0-13.438-6.011-13.438-13.433
		L197.98,223.228z"/>
	<path fill="#003894" d="M321.21,107.732c-7.741,0-14.015,6.278-14.015,14.02l-0.127,10.296l-0.008-0.063
		c0,0.157-0.127,0.29-0.294,0.29c-0.102,0-0.19-0.051-0.243-0.133l-12.515-18.131v0.011c-2.526-3.647-6.745-6.033-11.518-6.033
		c-7.745,0-14.013,6.272-14.013,14.019v53.552c0,7.742,6.268,14.021,14.013,14.021c7.742,0,14.018-6.278,14.018-14.021l0.147-10.517
		v0.022c0-0.162,0.134-0.29,0.291-0.29c0.106,0,0.185,0.041,0.238,0.122l12.251,18.009c2.499,3.863,6.838,6.418,11.773,6.418
		c7.738,0,14.013-6.278,14.013-14.021v-53.551C335.223,114.01,328.949,107.732,321.21,107.732"/>
	<path fill="#003894" d="M206.418,107.732c-4.495,0-8.502,2.044-11.161,5.25v-0.023l-15.583,17.66c0,0-0.18,0.412-0.581,0.412
		c-0.4,0-0.741-0.412-0.741-0.412l-15.825-17.515c-2.657-3.276-6.708-5.373-11.261-5.373c-8.002,0-14.49,6.493-14.49,14.496v53.389
		c0,7.735,6.278,14.014,14.014,14.014c7.742,0,14.019-6.279,14.019-14.014l0.343-19.212c0.026-0.209,0.197-0.377,0.416-0.377
		c0.107,0,0.211,0.047,0.288,0.116l12.588,14.078c0,0,0.325,0.506,0.766,0.506c0.437,0,0.755-0.506,0.755-0.506l11.847-14.327
		c0.076-0.076,0.177-0.117,0.294-0.117c0.234,0,0.42,0.18,0.42,0.412h0.006l0.349,19.427c0,7.735,6.272,14.014,14.015,14.014
		c7.74,0,14.02-6.279,14.02-14.014v-53.389C220.915,114.225,214.421,107.732,206.418,107.732"/>
	<path fill="#003894" d="M360.819,231.538l-7.233-0.006c-0.236,0-0.428-0.18-0.428-0.417v-11.907c0-0.231,0.191-0.412,0.428-0.412
		l7.233,0.006c3.52,0,6.371,2.845,6.371,6.364C367.19,228.681,364.338,231.538,360.819,231.538 M360.867,198.116l-27.534-0.012
		c-4.641,0-8.396,3.764-8.396,8.398l0.057,59.372c0,7.777,6.3,14.083,14.082,14.083c7.784,0,14.093-6.307,14.093-14.083l0.005-13.77
		c0-0.233,0.185-0.418,0.422-0.418l6.371,0.006c19.696,0,29.102-13.294,29.102-26.519
		C389.067,210.23,376.437,198.116,360.867,198.116"/>
	<path fill="#003894" d="M417.812,176.936c0.013,0.006,0.022,0.006,0.036,0.006c19.231,1.829,34.277,18.125,34.277,37.646
		c0,19.17-14.454,34.991-33.193,37.272c-6.496,0.795-11.53,6.115-11.53,12.789v27.215c0,0.58-0.467,1.039-1.04,1.039H98.431
		c-0.571,0-1.042-0.458-1.042-1.039l-0.023-118.999c0-6.574-5.331-11.912-11.906-11.912H67.121c-0.123,0-0.245-0.046-0.332-0.133
		c-0.186-0.179-0.186-0.476,0-0.657l98.991-102.544c0.187-0.181,0.482-0.181,0.659,0l30.013,28.887
		c4.113,4.118,11.791,4.495,16.28,0c4.492-4.5,4.458-11.825-0.034-16.313l-38.523-37.5c-4.498-4.489-11.781-4.489-16.281,0
		L30.778,164.536c-1.713,2.062-2.749,4.739-2.749,7.637c0,6.575,5.557,11.708,11.908,11.708h33.44c0.572,0,1.037,0.465,1.037,1.041
		v119.032c0,6.581,5.331,11.914,11.911,11.914h332.164c6.575,0,11.905-5.333,11.905-11.914v-30.5c0-0.314,0.202-0.557,0.482-0.639
		c25.334-7.236,43.865-30.565,43.865-58.227c0-23.742-13.665-44.284-33.561-54.209c-0.397-0.204-0.8-0.389-1.193-0.587
		c-0.427-0.196-0.715-0.626-0.715-1.126C439,127.13,420.45,99.962,393.686,87.249c-0.416-0.204-0.642-0.634-0.704-1.122
		C388.935,53.861,361.394,28.9,328.031,28.9c-14.577,0-28.055,4.756-38.933,12.823c-5.133,3.798-6.514,10.843-2.86,16.069
		s11.013,6.72,16.074,2.858c7.139-5.454,16.054-8.688,25.719-8.688c16.604,0,30.967,9.541,37.935,23.438
		c2.85,5.704,5.392,13.8,5.392,27.425c0,0.498,0.345,0.917,0.816,1.01c0.751,0.157,1.474,0.353,2.208,0.557
		c21.189,5.749,37.446,23.741,41.042,45.741c0.488,2.996,1.469,11.017,1.469,25.786
		C416.892,176.454,417.293,176.877,417.812,176.936"/>
	<path fill="#003894" d="M180.209,254.2c0,15.269-12.356,27.645-27.625,27.645c-10.666,0-18.77-4.21-25.022-10.906
		c-1.911-2.045-2.988-4.856-2.988-7.876c0-6.487,5.257-11.749,11.747-11.749c2.558,0,5.757,1.266,7.39,2.137
		c0.836,0.447,5.002,3.298,6.712,3.298c1.284,0,2.324-1.033,2.324-2.316c0-1.661-2.277-3.107-3.316-3.63
		c-11.802-5.901-22.645-13.926-22.645-28.608c0-14.676,10.547-26.244,27.204-26.244c8.958,0,16.819,4.035,22.438,10.151
		c1.702,1.853,2.7,4.298,2.7,7.004c0,5.738-4.654,10.39-10.393,10.39c-3.937,0-9.182-3.248-9.652-3.502
		c-1.382-0.761-1.968-1.463-3.339-1.463c-1.37,0-2.474,1.104-2.474,2.474c0,1.847,2.19,3.369,7.363,5.901
		C174.876,233.879,180.209,243.944,180.209,254.2"/>
	<path fill="#003894" d="M276.709,255.46c-9.182,0-16.617-7.44-16.617-16.622c0-9.177,7.436-16.615,16.617-16.615
		c9.174,0,16.617,7.438,16.617,16.615C293.327,248.02,285.883,255.46,276.709,255.46 M276.722,196.089
		c-23.304,0-42.194,19.147-42.194,42.75c0,23.613,18.891,42.75,42.194,42.75s42.197-19.137,42.197-42.75
		C318.919,215.236,300.026,196.089,276.722,196.089"/>
</g>
</svg>
