<?xml version="1.0" standalone="no"?>
<!DOCTYPE svg PUBLIC "-//W3C//DTD SVG 20010904//EN"
 "http://www.w3.org/TR/2001/REC-SVG-20010904/DTD/svg10.dtd">
<svg version="1.0" xmlns="http://www.w3.org/2000/svg"
 viewBox="0 0 2600.000000 2600.000000"
 preserveAspectRatio="xMidYMid meet">
<metadata>
Created by potrace 1.13, written by Peter Selinger 2001-2015
</metadata>
<g transform="translate(0.000000,2600.000000) scale(0.100000,-0.100000)"
fill="#000000" stroke="none">
<path d="M11205 24648 c712 -739 923 -1264 765 -1906 -88 -357 -242 -691 -698
-1512 -97 -173 -200 -360 -229 -415 -180 -333 -315 -703 -382 -1048 -48 -243
-56 -339 -56 -627 1 -225 4 -289 24 -420 46 -313 145 -634 276 -905 66 -135
163 -300 172 -291 3 2 16 101 29 218 170 1515 344 2098 803 2688 71 91 253
305 370 435 403 445 636 874 717 1320 24 136 25 412 1 545 -78 431 -293 808
-682 1195 -265 265 -581 501 -945 707 -118 67 -275 148 -286 148 -3 0 51 -59
121 -132z"/>
<path d="M13880 24692 c395 -425 566 -651 695 -917 113 -232 156 -411 156
-644 1 -338 -97 -656 -368 -1196 -121 -241 -160 -313 -441 -820 -223 -401
-280 -516 -365 -730 -118 -300 -186 -570 -228 -910 -18 -147 -16 -532 5 -690
43 -336 135 -654 272 -943 55 -117 172 -322 184 -322 3 0 12 55 19 123 96 942
230 1640 398 2067 147 373 324 635 766 1133 329 369 524 671 641 988 199 540
144 1064 -165 1576 -147 244 -452 576 -728 796 -239 190 -536 382 -796 514
l-130 66 85 -91z"/>
<path d="M12375 17370 c-2433 -62 -4569 -349 -6310 -846 -1184 -339 -2097
-767 -2665 -1250 -447 -380 -693 -795 -751 -1268 -30 -249 23 -557 141 -812
37 -80 37 -81 44 -255 59 -1491 395 -2850 1025 -4144 930 -1909 2467 -3516
4333 -4531 l128 -69 0 -80 c0 -350 67 -651 204 -930 114 -230 240 -403 444
-608 565 -571 1456 -993 2567 -1216 508 -102 1037 -151 1630 -151 993 0 1888
149 2684 446 388 146 676 289 981 489 712 466 1111 1057 1169 1730 6 66 11
165 11 220 l0 100 147 80 c1279 696 2447 1714 3329 2901 798 1073 1371 2278
1699 3569 185 727 282 1410 311 2189 l7 180 38 82 c49 103 93 237 121 367 32
149 32 428 0 577 -168 778 -834 1388 -2117 1937 -1580 677 -3974 1125 -6720
1258 -760 36 -1805 51 -2450 35z m1755 -1260 c1387 -44 2594 -155 3760 -346
1951 -319 3471 -833 4195 -1417 209 -168 355 -371 355 -493 0 -75 -69 -210
-162 -316 l-33 -37 -255 128 c-400 200 -716 329 -1215 497 -1623 544 -3785
884 -6255 984 -982 40 -1837 38 -2825 -5 -1729 -76 -3340 -273 -4659 -570 -60
-14 -127 -25 -150 -25 -59 0 -165 -25 -238 -55 -35 -14 -191 -61 -348 -105
-823 -227 -1440 -455 -2007 -744 l-206 -105 -34 37 c-105 118 -169 252 -159
335 29 248 415 586 1008 883 1474 738 4207 1253 7173 1353 341 12 1704 12
2055 1z m-1748 -2310 c-157 -46 -300 -93 -335 -112 -92 -48 -215 -175 -260
-269 -53 -108 -70 -194 -65 -314 13 -284 212 -518 494 -581 151 -33 160 -31
1058 225 905 259 902 258 1021 376 180 179 233 445 136 684 l-22 54 168 -7
c643 -26 1334 -79 1983 -152 173 -19 339 -38 368 -41 29 -3 55 -9 57 -13 3 -5
-2 -40 -11 -79 -26 -114 2 -197 78 -231 31 -14 37 -20 25 -26 -8 -5 -26 -27
-38 -49 -32 -54 -39 -219 -14 -350 41 -223 139 -480 235 -619 17 -26 26 -46
20 -46 -20 0 -6 -20 30 -43 34 -22 35 -13 1 26 -15 18 -14 18 19 13 576 -100
844 -124 1020 -92 118 22 121 24 125 82 2 34 33 126 103 300 107 268 156 410
167 485 6 40 3 52 -19 86 -22 34 -136 273 -136 286 0 6 310 -59 550 -114 402
-92 882 -224 1225 -336 214 -70 575 -203 575 -212 0 -14 -424 -166 -715 -257
-1051 -326 -2397 -585 -3815 -734 -291 -30 -739 -70 -791 -70 l-45 0 -79 183
c-97 226 -187 409 -228 464 -22 29 -42 44 -65 49 -18 3 -191 7 -385 8 -400 2
-432 7 -432 61 0 27 -5 32 -50 48 -157 55 -366 -80 -498 -324 -114 -208 -98
-394 37 -443 18 -6 18 -7 -3 -30 -13 -13 -29 -41 -36 -63 l-13 -38 -784 1
c-450 0 -908 6 -1078 13 -346 14 -812 40 -816 44 -2 2 49 99 113 217 147 273
209 402 223 464 13 60 13 61 -175 296 -145 181 -189 243 -210 294 -14 32 -13
35 7 48 22 15 22 15 4 61 -60 157 -322 219 -574 136 -122 -40 -187 -114 -178
-199 l4 -45 -41 0 c-70 -1 -133 -40 -243 -149 -147 -148 -298 -385 -351 -552
-11 -36 -20 -51 -30 -47 -15 6 -16 -9 -6 -58 l7 -34 6 29 c3 17 9 30 14 30 4
1 43 -62 85 -140 43 -77 92 -166 110 -198 l33 -58 -43 6 c-24 4 -181 22 -349
41 -481 56 -1075 144 -1469 217 l-115 21 54 14 c99 25 180 73 261 153 186 185
234 453 127 703 -13 29 -104 160 -203 292 -99 131 -183 245 -187 251 -6 8 12
15 60 24 1262 223 2493 352 3792 400 407 15 443 16 625 17 l160 2 -273 -79z
m-5372 -1111 c210 -281 368 -482 403 -514 l58 -53 -113 24 c-684 148 -1298
325 -1823 526 -71 27 -134 53 -138 57 -9 9 320 133 568 214 149 49 681 207
695 206 3 0 160 -207 350 -460z m-2360 -1004 c1500 -666 3688 -1115 6250
-1284 2012 -133 3966 -95 5850 114 2199 245 4037 707 5272 1326 l120 60 -7
-48 c-65 -445 -227 -1088 -391 -1550 -1084 -3055 -3698 -5298 -6875 -5897
-594 -112 -1033 -151 -1704 -151 -568 0 -857 19 -1345 91 -3615 528 -6590
3216 -7469 6749 -67 270 -161 733 -161 795 0 14 35 0 178 -70 97 -49 224 -109
282 -135z m5320 -8184 c1129 -367 2376 -545 3509 -503 1039 40 1954 201 2923
515 l168 54 -39 -46 c-254 -303 -805 -609 -1431 -795 -1816 -538 -4174 -230
-5185 678 -77 69 -169 173 -145 163 8 -3 98 -33 200 -66z"/>
</g>
</svg>
