<?xml version="1.0" standalone="no"?>
<!DOCTYPE svg PUBLIC "-//W3C//DTD SVG 20010904//EN"
 "http://www.w3.org/TR/2001/REC-SVG-20010904/DTD/svg10.dtd">
<svg version="1.0" xmlns="http://www.w3.org/2000/svg"
 viewBox="0 0 2600.000000 2600.000000"
 preserveAspectRatio="xMidYMid meet">
<metadata>
Created by potrace 1.15, written by Peter Selinger 2001-2017
</metadata>
<g transform="translate(0.000000,2600.000000) scale(0.100000,-0.100000)"
fill="#000000" stroke="none">
<path d="M18890 21800 c-167 -21 -382 -78 -585 -157 -49 -19 -241 -108 -425
-198 -551 -268 -641 -298 -895 -299 -220 0 -308 19 -815 174 -759 233 -1125
276 -1540 179 -362 -84 -636 -233 -1232 -672 -486 -357 -567 -396 -838 -404
-172 -6 -344 5 -715 43 -446 45 -863 45 -1125 -3 -336 -60 -650 -207 -940
-440 -153 -122 -480 -466 -615 -645 -17 -23 -96 -51 -615 -216 -1483 -474
-2004 -627 -2769 -813 -888 -216 -1173 -308 -1571 -508 -458 -231 -778 -502
-1015 -860 -193 -294 -320 -625 -387 -1014 l-22 -128 -47 -47 c-43 -44 -50
-57 -92 -192 -110 -349 -157 -640 -179 -1092 -13 -275 -3 -682 27 -1103 57
-806 65 -974 65 -1420 1 -900 67 -1749 225 -2890 80 -582 114 -768 191 -1065
196 -754 580 -1571 1129 -2400 345 -520 649 -903 1009 -1268 601 -610 1175
-973 1787 -1131 285 -74 500 -101 804 -101 449 0 789 52 1636 249 551 129 930
206 1989 406 1660 313 2001 396 3495 845 674 203 817 242 1586 435 384 97 810
207 946 246 976 276 1958 655 3083 1189 319 151 885 433 1035 516 729 400
1167 767 1480 1239 303 457 466 983 544 1755 20 196 30 341 76 1090 14 223 34
515 46 650 18 225 18 248 4 286 -8 23 -26 51 -38 63 l-23 21 23 103 c64 282
87 628 64 937 -14 187 -21 216 -67 275 l-34 46 9 82 c37 298 76 865 92 1312
32 907 -61 1802 -246 2358 -117 352 -303 631 -516 772 -78 53 -220 113 -339
146 l-79 22 32 17 c48 25 98 98 181 260 136 265 288 661 355 920 59 231 76
357 76 570 0 226 -17 316 -85 455 -116 239 -356 396 -701 462 -140 26 -522 24
-829 -4 -346 -32 -440 -36 -598 -23 -341 27 -557 133 -881 433 -290 268 -341
312 -431 372 -115 77 -208 120 -315 146 -95 22 -280 31 -385 19z m306 -414
c77 -20 181 -79 254 -142 36 -31 140 -126 232 -211 334 -310 517 -431 775
-517 220 -72 283 -81 608 -80 200 0 344 5 465 17 246 25 541 33 669 18 265
-31 440 -137 492 -299 28 -86 37 -285 19 -416 -47 -343 -257 -922 -455 -1251
-70 -117 -74 -191 -14 -260 l31 -35 -88 7 c-136 12 -536 9 -654 -5 -457 -55
-947 -199 -1297 -382 -62 -33 -113 -55 -113 -50 0 5 20 62 44 127 236 633 485
1003 772 1147 38 19 101 44 141 55 81 24 103 46 103 101 0 44 -23 78 -66 96
-69 29 -266 -48 -421 -165 -298 -225 -560 -677 -793 -1371 -54 -159 -67 -190
-98 -219 l-35 -34 -12 41 c-15 50 -68 148 -142 262 -205 315 -477 558 -808
723 -322 160 -624 222 -1050 215 l-220 -3 -23 57 c-72 183 -50 366 107 887 39
129 71 240 71 247 0 47 -54 94 -109 94 -63 0 -83 -34 -156 -270 -85 -269 -130
-447 -145 -574 -17 -135 -8 -298 23 -403 l24 -81 -96 -22 c-257 -59 -598 -207
-826 -357 -156 -103 -256 -185 -380 -308 -344 -344 -574 -765 -754 -1379 l-38
-129 -32 59 c-85 160 -229 282 -423 359 -65 26 -86 40 -125 86 -204 238 -302
581 -319 1114 -16 490 60 982 210 1349 46 113 47 154 5 195 -29 29 -48 36 -94
31 -32 -3 -51 -29 -86 -115 -177 -444 -249 -885 -236 -1445 11 -477 83 -806
234 -1073 18 -33 33 -60 33 -62 0 -1 -66 -5 -147 -8 -163 -6 -288 -28 -436
-78 -442 -147 -876 -512 -1226 -1029 -362 -534 -551 -1104 -551 -1658 0 -413
91 -815 305 -1347 128 -318 154 -358 239 -372 20 -3 36 -10 36 -15 0 -12 -59
-128 -82 -160 -11 -16 -23 -28 -28 -28 -4 0 -43 70 -85 156 -262 533 -410 991
-482 1489 -22 153 -25 592 -5 735 84 592 335 1087 809 1591 78 83 112 127 121
156 22 75 9 146 -36 198 -19 22 -175 104 -242 127 -9 3 -22 30 -29 59 -21 85
-125 394 -170 508 -237 591 -556 1049 -980 1404 -36 30 -53 37 -87 37 -69 0
-127 -64 -109 -120 3 -11 63 -70 133 -133 416 -373 715 -848 931 -1481 34 -98
61 -181 61 -186 0 -4 -35 1 -77 11 -183 44 -288 54 -573 54 -298 0 -350 -6
-576 -65 -230 -59 -472 -167 -664 -295 -106 -71 -130 -80 -130 -51 0 7 -28 55
-62 107 -85 129 -264 306 -523 514 -227 183 -418 362 -496 465 -65 85 -134
225 -160 325 -28 107 -30 294 -5 415 53 246 199 527 415 798 365 457 672 719
986 841 346 134 665 153 1365 81 391 -41 742 -51 900 -26 127 20 289 73 390
127 114 61 281 174 530 357 651 479 928 612 1305 629 272 12 611 -56 1185
-237 440 -139 635 -175 885 -167 291 10 417 52 995 331 358 173 341 166 477
217 283 105 526 139 689 95z m-10407 -2637 c-82 -199 -118 -364 -126 -570 -4
-123 -2 -178 12 -259 31 -187 99 -358 203 -512 52 -77 194 -243 235 -274 14
-11 68 -57 121 -103 94 -81 96 -84 82 -107 -33 -49 -36 -103 -15 -209 98 -488
223 -983 329 -1310 163 -505 316 -853 835 -1905 340 -691 400 -824 494 -1102
180 -529 323 -885 763 -1893 496 -1135 692 -1643 847 -2191 80 -285 137 -618
129 -754 l-3 -55 -320 -62 c-778 -151 -1345 -252 -2060 -368 -672 -109 -961
-160 -1355 -241 -788 -161 -1050 -197 -1435 -197 -250 1 -397 16 -565 58 -479
120 -829 368 -1162 820 -285 389 -617 1062 -934 1896 -100 264 -212 582 -424
1204 -256 751 -305 888 -445 1255 -254 664 -321 846 -411 1115 -315 946 -450
1695 -431 2385 18 635 168 1129 456 1500 264 341 678 610 1239 806 215 76 417
133 792 225 892 218 1439 372 2425 684 215 68 464 148 555 178 91 30 173 55
182 56 15 1 13 -9 -13 -70z m9266 -399 c205 -23 382 -74 570 -165 317 -153
559 -393 739 -733 40 -76 57 -98 91 -118 23 -13 49 -24 58 -24 32 0 25 -18
-29 -86 -100 -124 -214 -306 -296 -472 l-81 -162 -32 74 c-215 495 -768 779
-1433 735 -409 -27 -726 -171 -1018 -463 -305 -306 -476 -677 -568 -1236 -37
-223 -52 -373 -86 -840 -16 -228 -35 -477 -42 -552 -11 -125 -10 -141 5 -173
10 -20 31 -44 47 -53 16 -9 30 -20 30 -23 0 -4 -21 -14 -47 -24 -181 -67 -524
-295 -662 -439 -19 -20 -39 -36 -45 -36 -13 0 -1 474 19 715 54 679 161 1369
300 1938 69 282 181 643 250 807 55 131 177 357 243 449 76 108 262 305 369
393 320 261 758 444 1164 487 119 12 348 13 454 1z m4215 -545 c211 -38 376
-102 459 -180 181 -170 325 -522 420 -1030 116 -627 136 -1339 66 -2390 -62
-910 -146 -1511 -306 -2162 -27 -112 -49 -214 -49 -228 0 -34 26 -94 52 -122
l22 -23 -59 -86 c-96 -142 -181 -241 -334 -394 -128 -127 -273 -254 -393 -344
l-38 -28 -20 47 c-36 85 -36 91 4 98 44 7 92 40 110 75 8 15 21 88 31 162 50
408 110 685 319 1466 239 896 327 1296 380 1734 117 955 -54 1760 -466 2195
-44 47 -117 113 -161 146 -103 78 -276 162 -402 196 -90 24 -117 27 -275 27
-150 0 -189 -3 -270 -23 -449 -109 -825 -415 -1049 -851 -159 -309 -225 -591
-306 -1300 -41 -365 -66 -537 -102 -705 -15 -73 -23 -139 -20 -167 4 -44 2
-47 -22 -52 -96 -20 -529 -97 -574 -102 l-54 -6 -8 478 c-17 1196 70 1821 330
2349 167 340 390 598 675 782 369 239 909 408 1442 453 156 13 486 4 598 -15z
m-4390 -705 c145 -13 251 -34 360 -72 259 -91 438 -241 537 -448 25 -52 54
-113 64 -136 26 -53 63 -74 133 -74 31 0 56 -2 56 -4 0 -2 -9 -32 -19 -67 -58
-189 -110 -445 -140 -689 -42 -342 -46 -438 -45 -1164 l1 -698 -41 5 c-22 3
-96 11 -163 18 -66 6 -126 15 -132 18 -7 5 -3 65 14 201 76 604 91 1024 49
1384 -39 339 -112 535 -254 676 -131 132 -282 192 -485 193 -381 2 -639 -248
-764 -740 -57 -221 -85 -471 -106 -938 -8 -187 -18 -359 -21 -382 l-6 -43 -72
8 c-130 13 -433 7 -532 -11 -50 -9 -98 -19 -107 -22 -13 -6 -14 -2 -2 32 13
38 38 298 50 523 35 654 65 924 135 1200 143 570 444 970 851 1134 137 55 299
90 459 99 30 2 57 4 60 5 3 1 57 -3 120 -8z m3905 -449 c358 -74 609 -336 759
-791 88 -268 120 -507 120 -890 -1 -551 -88 -1046 -369 -2100 -186 -697 -266
-1039 -321 -1375 l-28 -170 -18 75 c-10 41 -33 167 -53 280 -20 113 -56 317
-80 454 -25 137 -44 250 -43 251 2 1 29 7 61 14 99 21 149 92 133 189 -3 20
-15 49 -26 64 l-21 28 75 182 c82 203 112 292 156 468 41 164 114 497 145 665
119 648 125 1136 16 1395 -94 225 -314 406 -570 471 -117 30 -283 24 -388 -13
-206 -73 -373 -259 -486 -543 -119 -299 -212 -809 -234 -1292 -5 -119 -9 -143
-21 -138 -39 15 -170 28 -287 29 l-130 1 26 130 c35 172 51 289 94 665 65 581
113 828 209 1083 94 249 287 508 493 663 247 186 528 259 788 205z m-11851
-270 c48 -73 73 -102 101 -115 l36 -18 -35 -41 c-19 -23 -61 -79 -93 -124 -32
-45 -61 -82 -64 -82 -3 -1 -11 20 -17 47 -20 82 -122 526 -127 552 -8 40 124
-106 199 -219z m3483 -392 c48 -23 99 -77 119 -125 18 -42 18 -135 1 -177 -68
-160 -296 -198 -423 -71 -43 43 -74 116 -74 175 0 95 82 193 185 220 46 12
144 1 192 -22z m4528 -69 c119 -31 173 -83 229 -222 122 -308 134 -854 35
-1668 -12 -96 -25 -178 -28 -182 -8 -9 -278 54 -641 150 -146 39 -278 73 -294
77 l-29 6 6 67 c4 37 11 186 17 332 26 679 73 964 201 1212 56 107 142 196
219 226 73 28 181 29 285 2z m3683 -351 c26 -6 88 -30 137 -54 220 -102 291
-242 302 -601 6 -178 -5 -328 -42 -585 -46 -316 -147 -777 -230 -1059 -37
-124 -135 -386 -162 -435 -7 -11 -18 7 -42 67 -136 338 -360 632 -615 806
l-69 47 6 180 c24 691 169 1287 366 1510 105 119 211 157 349 124z m-8498
-186 c47 -19 79 -50 101 -98 30 -64 24 -103 -26 -197 -146 -269 -210 -466
-236 -734 -6 -65 -9 -162 -6 -215 3 -54 2 -113 -4 -133 -21 -76 -112 -146
-189 -146 -45 0 -108 30 -142 66 -48 52 -58 101 -59 281 0 245 29 430 103 658
48 151 188 435 239 486 57 57 131 68 219 32z m-10193 -1628 c119 -493 267
-947 564 -1723 205 -534 258 -683 539 -1497 565 -1639 850 -2319 1240 -2960
233 -382 508 -705 763 -896 436 -326 986 -470 1673 -438 335 15 606 56 1248
185 177 36 524 99 771 140 2071 345 3522 627 4890 949 2540 599 4632 1326
6505 2261 348 174 479 245 715 387 570 343 992 699 1285 1084 30 40 55 71 57
70 6 -7 -66 -1096 -88 -1317 -56 -577 -202 -1076 -421 -1434 -271 -444 -675
-802 -1285 -1138 -174 -96 -914 -467 -1193 -598 -792 -374 -1533 -676 -2240
-913 -405 -136 -726 -225 -1465 -407 -653 -160 -920 -234 -1820 -505 -1409
-424 -1758 -507 -3530 -844 -765 -146 -977 -190 -1581 -326 -1176 -266 -1386
-300 -1854 -299 -316 0 -453 15 -687 74 -359 91 -747 286 -1083 544 -422 326
-857 793 -1292 1391 -509 698 -932 1504 -1177 2241 -138 414 -215 795 -320
1574 -130 968 -190 1805 -191 2690 0 336 -15 762 -35 1050 -31 455 -44 660
-49 790 -6 152 -10 161 61 -135z m13826 -5 c121 -12 332 -54 537 -106 441
-114 614 -156 770 -188 371 -74 656 -107 940 -109 217 0 300 10 720 88 322 60
383 68 555 67 176 0 262 -18 390 -81 278 -137 508 -486 641 -969 44 -163 72
-297 140 -671 103 -570 170 -835 277 -1095 33 -81 38 -100 26 -107 -470 -290
-1506 -795 -2344 -1144 -174 -72 -588 -235 -788 -310 -26 -10 -50 -15 -53 -12
-3 3 0 49 6 104 22 182 -7 410 -76 601 -61 168 -147 313 -381 638 -207 289
-313 470 -365 630 -35 105 -45 169 -63 409 -19 250 -37 362 -81 495 -40 121
-75 187 -150 286 -125 165 -331 287 -574 340 -69 16 -126 19 -305 18 -202 0
-241 -3 -465 -37 -439 -67 -648 -71 -825 -16 -61 19 -79 30 -144 94 l-74 73
119 148 c139 173 340 384 472 495 252 210 485 319 772 363 53 7 220 6 323 -4z
m-3838 -722 c-37 -34 -81 -82 -98 -107 -27 -39 -31 -42 -38 -25 -33 85 30 146
199 193 1 1 -27 -27 -63 -61z m995 -103 c133 -20 258 -58 326 -100 33 -19 84
-43 114 -51 125 -36 219 -103 425 -304 172 -168 236 -213 364 -260 141 -52
234 -65 456 -64 208 0 201 0 625 70 219 36 470 39 595 5 113 -30 215 -83 286
-148 127 -119 155 -207 184 -588 17 -216 27 -310 45 -393 50 -226 187 -490
430 -827 212 -294 324 -482 369 -623 62 -194 57 -411 -16 -646 -22 -70 27 -48
-508 -226 -1277 -423 -2566 -765 -4229 -1121 -153 -33 -280 -58 -281 -57 -1 2
-7 66 -14 143 -54 606 -285 1284 -1015 2974 -125 287 -226 523 -226 525 0 2
15 6 34 9 72 12 143 82 156 155 3 20 2 59 -3 87 -8 46 -7 51 17 70 15 12 120
70 234 129 227 119 334 185 430 265 110 92 166 182 301 489 68 156 105 216
183 293 50 50 89 77 160 112 183 90 347 114 558 82z m-2011 -989 c-2 -2 -58
-40 -125 -84 -66 -44 -127 -88 -134 -97 -12 -15 -17 -8 -42 56 -16 39 -26 74
-23 77 2 3 67 15 142 27 137 22 190 28 182 21z"/>
<path d="M6920 13890 c-63 -4 -167 -15 -230 -24 -571 -83 -845 -286 -958 -711
-28 -102 -36 -148 -72 -383 -16 -107 -50 -282 -75 -389 -76 -324 -89 -458 -60
-598 38 -178 122 -275 467 -538 132 -100 294 -224 361 -275 335 -257 612 -413
852 -478 92 -26 115 -28 290 -28 178 -1 196 1 290 27 57 15 152 53 220 87 467
233 792 681 865 1190 65 456 -6 942 -195 1325 -181 366 -524 620 -994 734
-217 53 -520 78 -761 61z m451 -405 c401 -53 700 -212 884 -469 145 -203 244
-562 245 -881 0 -421 -144 -782 -406 -1014 -196 -174 -400 -261 -609 -261
-133 0 -222 23 -378 98 -150 73 -287 162 -527 347 -102 78 -259 197 -350 265
-204 153 -296 240 -310 291 -12 45 -3 115 45 359 19 96 48 259 65 361 54 337
106 549 155 634 77 132 251 209 585 259 148 22 157 23 335 24 90 1 206 -5 266
-13z"/>
<path d="M7193 13109 c-82 -24 -83 -162 -1 -187 18 -6 71 -13 118 -16 226 -14
408 -117 484 -271 55 -113 60 -137 61 -335 1 -102 5 -192 11 -201 36 -62 144
-46 179 27 24 51 24 287 0 399 -71 333 -320 547 -675 580 -36 3 -83 8 -105 10
-22 2 -55 -1 -72 -6z"/>
<path d="M6367 12755 c-45 -46 -97 -288 -97 -455 0 -106 23 -218 61 -291 31
-63 124 -155 194 -194 91 -51 219 -89 445 -130 297 -54 415 -95 501 -172 55
-50 95 -124 115 -211 11 -50 23 -77 37 -87 46 -32 124 -8 153 47 14 28 15 41
5 98 -23 129 -95 244 -203 325 -129 97 -257 142 -524 185 -221 36 -313 59
-394 100 -82 41 -124 81 -159 151 -54 108 -51 242 10 453 36 126 36 141 0 177
-40 39 -106 41 -144 4z"/>
<path d="M18904 12622 c-68 -43 -96 -112 -75 -183 16 -54 63 -86 150 -104 96
-20 163 -48 241 -100 292 -194 640 -807 825 -1450 44 -155 56 -180 98 -205 85
-52 209 1 227 98 8 46 -8 114 -76 332 -171 541 -467 1070 -747 1337 -171 162
-372 265 -562 288 -39 5 -56 2 -81 -13z"/>
<path d="M13885 11894 c-104 -19 -231 -63 -302 -105 -76 -45 -201 -170 -244
-244 -48 -81 -98 -201 -159 -380 -101 -296 -176 -405 -337 -488 -103 -53 -131
-80 -144 -137 -23 -104 50 -201 141 -186 87 14 250 108 347 199 121 114 183
229 284 524 84 247 122 324 195 393 84 80 163 110 379 145 56 9 111 69 120
129 9 57 -8 108 -46 141 -26 21 -40 25 -92 24 -34 0 -98 -7 -142 -15z"/>
<path d="M15781 11214 c-63 -56 -77 -135 -36 -198 9 -14 62 -54 118 -88 264
-163 415 -332 463 -519 25 -95 21 -252 -11 -449 -77 -478 -74 -670 15 -940 41
-126 113 -278 155 -328 65 -78 203 -54 249 42 24 52 20 74 -35 187 -149 304
-166 482 -93 951 54 344 50 514 -16 702 -76 221 -268 426 -576 615 -84 52
-105 61 -146 61 -41 0 -54 -5 -87 -36z"/>
</g>
</svg>
